<?xml version="1.0" encoding="UTF-8"?> <svg xmlns="http://www.w3.org/2000/svg" height="128" viewBox="0 0 607 128" width="607"><g fill="none" fill-rule="evenodd"><path d="m156.3736 80.8354c5.5 0 10.093 3.827 10.093 10.093 0 6.1615667-4.441176 9.963789-9.818773 10.088818l-.274227.003182c-5.5 0-10.093-3.826-10.093-10.092s4.593-10.093 10.093-10.093zm449.1147 17.0114c-.359822.3588444-2.645128 3.050449-7.941224 3.169899l-.365776.004101c-5.585 0-9.979-4.026-9.979-10.121s4.394-10.064 9.951-10.064c5.019 0 7.173 2.636 7.91 3.402l-1.871 1.73c-1.163-1.362-2.977-2.779-6.039-2.779-4.025 0-7.116 2.892-7.116 7.711 0 4.82 3.204 7.713 7.286 7.713 4.055 0 5.5-1.787 5.5-1.787v-4.338h-5.272v-2.24h7.937zm-113.7104-17.0108c3.658 0 5.87 1.531 6.947 2.58l-1.162 2.211c-.738643-.9295714-2.795809-2.2803635-5.381559-2.375663l-.289441-.005337c-4.224 0-7.286 3.033-7.286 7.626 0 4.592 3.09 7.627 7.286 7.627 2.58 0 4.564-.994 5.841-2.383l1.19 2.014c-1.178367 1.3156333-3.284637 2.789188-6.778588 2.885963l-.366412.005037c-5.698 0-10.007-3.996-10.007-10.093 0-6.094 4.394-10.092 10.007-10.092zm-186.5698 0c3.658 0 5.869 1.531 6.947 2.58l-1.163 2.211c-.737679-.9295714-2.79388-2.2803635-5.38046-2.375663l-.28954-.005337c-4.224 0-7.286 3.033-7.286 7.626 0 4.592 3.09 7.627 7.286 7.627 2.58 0 4.565-.994 5.84-2.383l1.191 2.014c-1.178367 1.3156333-3.283702 2.789188-6.778494 2.885963l-.366506.005037c-5.698 0-10.007-3.996-10.007-10.093 0-6.094 4.394-10.092 10.007-10.092zm216.4505.2832v11.312c0 1.644.028 3.232.907 4.394.794 1.078 2.07 1.731 3.77 1.731 1.701 0 2.95-.653 3.772-1.731.879-1.162.907-2.777.907-4.394v-11.312h2.75v11.567c0 2.438-.228 4.366-1.56 5.954-1.275043 1.464435-3.120091 2.304885-5.536017 2.375199l-.332983.004801c-2.607 0-4.564-.849-5.868-2.38-1.361-1.588-1.588-3.516-1.588-5.954v-11.567zm-89.6415 0v11.312c0 1.644.028 3.232.907 4.394.793 1.078 2.069 1.731 3.77 1.731s2.949-.653 3.771-1.731c.827294-1.0936471.900761-2.5885675.906542-4.1087596l.000458-11.5972404h2.75v11.567c0 2.438-.227 4.366-1.56 5.954-1.274087 1.464435-3.119093 2.304885-5.535017 2.375199l-.332983.004801c-2.608 0-4.564-.849-5.868-2.38-1.361-1.588-1.588-3.516-1.588-5.954v-11.567zm-65.687-.0004 5.643 15.111h.056l5.642-15.111h3.374l1.786 19.562h-2.722l-1.275-15.451h-.086l-5.982 15.621h-1.559l-5.982-15.621h-.084l-1.248 15.451h-2.722l1.758-19.562zm-128.225 0 5.5 15.593 5.5-15.593h2.892l-7.201 19.591h-2.438l-7.201-19.591zm172.1391 0 11.085 15.367-.000784-.07006c-.004368-.39832-.025561-2.4385689-.027125-4.6625896l-.000091-10.6343504h2.693v19.562h-2.693l-11.284-15.592s.049882 2.3068429.056319 4.693746l.000681 10.898254h-2.723v-19.562zm-133.357 0 11.085 15.367-.000784-.07006c-.004368-.39832-.025561-2.4385689-.027125-4.6625896l-.000091-10.6343504h2.693v19.562h-2.693l-11.284-15.592s.049882 2.3068429.056319 4.693746l.000681 10.898254h-2.722v-19.562zm61.888 0c3.402 0 5.897 1.248 7.315 2.552 1.417 1.304 3.033 3.572 3.033 7.229 0 3.658-1.616 5.926-3.033 7.23-1.365481 1.2566667-3.729663 2.458623-6.940741 2.545933l-.374259.005067h-5.897v-19.562zm-76.2891-.0564 7.995 19.618h-3.062l-2.013-5.103h-8.391l-2.014 5.103h-2.891l7.967-19.618zm-119.1531.0563v2.297h-8.108v6.521h7.626v2.296h-7.626v8.448h-2.75v-19.562zm401.4585.0003c1.957 0 3.544.454 4.707 1.361 1.162.936 1.899 2.354 1.899 4.139 0 3.43-2.382 4.962-4.451 5.358l5.585 8.704h-3.318l-5.102-8.42h-2.099v8.42h-2.75v-19.562zm-84.312-.0003v2.297h-8.108v6.521h7.627v2.296h-7.627v8.448h-2.75v-19.562zm-283.9488.0003c1.956 0 3.544.454 4.706 1.361 1.162.936 1.899 2.354 1.899 4.139 0 3.43-2.381 4.962-4.451 5.358l5.585 8.704h-3.317l-5.103-8.42h-2.098v8.42h-2.75v-19.562zm338.7779-.0003v2.297h-5.5v17.265h-2.75v-17.265h-5.528v-2.297zm-293.3337.0001c3.402 0 5.897 1.248 7.314 2.552 1.418 1.304 3.034 3.572 3.034 7.229 0 3.658-1.616 5.926-3.034 7.23-1.364519 1.2566667-3.728664 2.458623-6.939741 2.545933l-.374259.005067h-5.897v-19.562zm105.97 0v2.297h-8.703v5.84h8.222v2.297h-8.222v6.804h8.93v2.324h-11.68v-19.562zm-123.3772-.0564 7.995 19.618h-3.062l-2.013-5.103h-8.391l-2.014 5.103h-2.891l7.967-19.618zm364.321.0564 11.085 15.367s-.024391-2.0993778-.027643-4.4769304l-.000357-10.8900696h2.693v19.562h-2.693l-11.285-15.592.000681.0321853c.006215.2969874.05293 2.6013054.056145 4.908676l.000174 10.6511387h-2.722v-19.562zm-172.7624-.0564 7.995 19.618h-3.063l-2.012-5.103h-8.392l-2.014 5.103h-2.89l7.967-19.618zm164.2287.0566v19.562h-2.75v-19.562zm-88.4231-.0566 7.995 19.618h-3.062l-2.012-5.103h-8.393l-2.013 5.103h-2.891l7.967-19.618zm-315.5583 2.155c-3.998 0-7.287 2.863-7.287 7.654 0 4.763 3.318 7.655 7.287 7.655 3.997 0 7.286-2.892 7.286-7.655 0-4.791-3.289-7.654-7.286-7.654zm65.6013.2554h-3.147v14.827h3.147c2.381 0 4.139-.795 5.216-1.814 1.078-1.022 2.325-2.75 2.325-5.586 0-2.835-1.247-4.592-2.325-5.613-1.077-1.021-2.835-1.814-5.216-1.814zm116.8003 0h-3.147v14.827h3.147c2.381 0 4.139-.795 5.216-1.814 1.077-1.022 2.325-2.75 2.325-5.586 0-2.835-1.248-4.592-2.325-5.613s-2.835-1.814-5.216-1.814zm131.8807 1.0196-3.43 8.79h6.861zm-209.4458 0-3.43 8.79h6.861zm133.6392 0-3.429 8.79h6.861zm-191.5576 0-3.43 8.79h6.861zm-27.527-1.1334h-2.013v6.634h2.013c1.361 0 2.41-.057 3.289-.681.878-.651 1.247-1.445 1.247-2.636 0-1.163-.369-1.985-1.247-2.608-.879-.652-1.928-.709-3.289-.709zm368.2618 0h-2.014v6.634h2.014c1.36 0 2.409-.057 3.288-.681.879-.651 1.248-1.445 1.248-2.636 0-1.163-.369-1.985-1.248-2.608-.879-.652-1.928-.709-3.288-.709zm-22.382-55.3446c10.332 0 18.447 6.753 18.447 17.993 0 11.238-8.115 17.941-18.447 17.941s-18.445-6.703-18.445-17.941c0-11.24 8.113-17.993 18.445-17.993zm-247.1591.5538v20.261c0 2.469.202 4.385 1.361 5.796 1.109 1.31 2.722 2.167 4.99 2.167s3.88-.857 4.989-2.167c1.159-1.411 1.361-3.327 1.361-5.796v-20.261h8.215v20.261c0 4.889-.857 8.265-3.326 10.937-2.42 2.62-6.199 4.133-11.239 4.133-5.091 0-8.82-1.513-11.29-4.133-2.419-2.672-3.276-6.048-3.276-10.937v-20.261zm92.7358.0002 14.917 23.385s-.151-3.93-.151-7.609v-15.776h7.963v34.776h-8.366l-15.272-23.587s.144848 3.9861808.151746 7.5984204l.000254 15.9885796h-7.963v-34.776zm217.8252 0v12.701l10.737-12.701h9.676l-12.247 13.86 13.104 20.916h-9.777l-8.72-14.515-2.773 3.075v11.44h-8.113v-34.776zm-270.9468 0 7.258 22.881h.1l7.157-22.881h10.333l2.57 34.776h-8.014l-1.361-23.688h-.101l-7.459 23.688h-6.451l-7.51-23.688h-.151l-1.26 23.688h-8.013l2.62-34.776zm-147.066.0001c3.881 0 6.905.807 9.173 2.47 2.318 1.713 3.83 4.485 3.83 7.963 0 6.602-4.233 9.172-6.804 9.979l8.82 14.364h-9.475l-7.308-13.306h-2.57v13.306h-8.165v-34.776zm391.1514 0c3.88 0 6.905.807 9.172 2.47 2.319 1.713 3.831 4.485 3.831 7.963 0 6.602-4.234 9.172-6.804 9.979l8.819 14.364h-9.474l-7.309-13.306h-2.57v13.306h-8.164v-34.776zm-138.347-.0001v6.502h-14.414v7.106h13.607v6.501h-13.607v8.064h14.867v6.603h-22.982v-34.776zm40.7229.0001 6.048 23.436 6.249-23.436h8.165l6.299 23.436 5.998-23.436h8.518l-10.08 34.776h-8.215l-6.603-23.839-6.602 23.839h-8.215l-10.08-34.776zm-251.1405-.0001v28.022h12.045v6.754h-20.16v-34.776zm240.3042.0003v6.451h-8.971v28.325h-8.165v-28.325h-8.971v-6.451zm-299.5742 0v6.451h-8.971v28.325h-8.165v-28.325h-8.971v-6.451zm84.1171-.0003v28.022h12.045v6.754h-20.16v-34.776zm24.8965-.0004v34.776h-8.165v-34.776zm-65.217 0v34.776h-8.165v-34.776zm327.6975 6.4014c-5.795 0-10.18 4.183-10.18 10.836 0 6.652 4.385 10.887 10.18 10.887 5.797 0 10.182-4.235 10.182-10.887 0-6.603-4.385-10.836-10.182-10.836zm-355.7699-.1009h-3.226v8.921h3.226c1.865 0 3.175-.202 4.183-.958 1.059-.756 1.764-1.713 1.764-3.528 0-1.764-.705-2.772-1.764-3.528-1.008-.756-2.318-.907-4.183-.907zm391.1504 0h-3.225v8.921h3.225c1.866 0 3.176-.202 4.184-.958 1.059-.756 1.764-1.713 1.764-3.528 0-1.764-.705-2.772-1.764-3.528-1.008-.756-2.318-.907-4.184-.907z" fill="#fff"></path><path d="m107.8203-.0003s-1.422 34.928-9.986 50.303c-4.6850781 8.40875-10.9124719 12.3182568-16.1562357 13.8220264 5.2865132 1.3421784 11.6295587 5.0602815 16.5655357 13.3222736 9.039 15.11 11.523 49.975 11.523 49.975s-29.541-18.697-38.568-33.803c-4.6689972-7.8102691-5.1664682-14.8039808-4.0918255-20.0164602-3.9057898 3.2407305-9.7905628 5.9466757-18.0637745 6.0731602-17.6.268-49.043-15.012-49.043-15.012l.03679744-.0192197c1.19625856-.6236355 31.27520256-16.2171603 48.52320256-16.4807803 8.0646251-.1223649 13.9354375 2.2729565 17.9349445 5.2820779-.8033931-4.9746305-.1668949-11.3488205 3.8073555-18.4830779 8.568-15.373 37.518-34.963 37.518-34.963z" fill="#00a94f"></path><path d="m76.232 55.735c2.318-1.397 5.07-2.135 8.177-2.191 12.4-.226 23.451 9.66 23.917 10.081l1.158 1.048-1.122 1.093c-.127.125-3.2 3.09-7.822 5.875-5.433 3.269-10.721 4.975-15.707 5.062-9.851.178-14.571-6.646-14.655-11.317-.051-2.863 1.82-7.102 6.054-9.651" fill="#ffd200"></path><path d="m106.4287 64.7545s-10.558 10.277-22.565 10.46c-9.293.139-13.078-6.444-13.128-9.913-.056-3.479 3.525-10.174 12.819-10.317 12.008-.181 22.874 9.768 22.874 9.77" fill="#fefefe"></path><path d="m60.6485 66.026c-2.375-1.3-4.396-3.306-6.01-5.962-6.439-10.599-3.463-25.125-3.334-25.74l.322-1.527 1.508.417c.173.047 4.282 1.21 9.014 3.8 5.562 3.048 9.7 6.759 12.286 11.022 5.114 8.421 1.594 15.935-2.398 18.359-2.45 1.486-7.053 2.005-11.388-.369" fill="#ffd200"></path><path d="m53.6182 35.2545s14.177 4.009 20.341 14.314c4.772 7.98.961 14.544-2.024 16.328-2.981 1.783-10.569 2.028-15.342-5.95-6.158-10.303-2.976-24.688-2.975-24.692" fill="#fefefe"></path><path d="m76.4903 74.8576c.043 2.707-.703 5.455-2.216 8.17-6.035 10.834-20.136 15.42-20.734 15.611l-1.487.475-.382-1.518c-.044-.174-1.063-4.32-1.148-9.715-.096-6.341 1.086-11.771 3.516-16.125 4.797-8.606 13.069-9.257 17.148-6.982 2.502 1.396 5.227 5.142 5.303 10.084" fill="#ffd200"></path><path d="m53.7364 96.258c.001-.004-3.626-14.279 2.225-24.771 4.525-8.12 12.118-8.106 15.152-6.417 3.038 1.692 7.042 8.143 2.519 16.262-5.846 10.49-19.893 14.922-19.896 14.926" fill="#fefefe"></path><path d="m73.792 59.9206c2.367.604 3.795 3.012 3.192 5.377-.603 2.366-3.01 3.793-5.374 3.191-2.365-.603-3.793-3.009-3.191-5.375.604-2.364 3.01-3.795 5.373-3.193" fill="#ffd200"></path></g></svg> 